<?xml version="1.0" encoding="UTF-8"?>
<svg xmlns="http://www.w3.org/2000/svg" xmlns:xlink="http://www.w3.org/1999/xlink" width="24pt" height="24pt" viewBox="0 0 24 24" version="1.1">
<g id="surface1">
<path style=" stroke:none;fill-rule:nonzero;fill:rgb(0%,0%,0%);fill-opacity:1;" d="M 2.175781 1.351562 C 1.613281 1.648438 0.976562 2.210938 0.75 2.625 C 0.523438 3.039062 0.375 6.789062 0.375 12.074219 C 0.375 19.800781 0.449219 20.925781 1.050781 21.601562 C 2.289062 23.136719 3 23.25 12.074219 23.25 C 24.414062 23.25 24 23.625 24 12 C 24 4.011719 23.699219 2.511719 22.011719 1.5 C 20.925781 0.824219 20.101562 0.75 12 0.75 C 4.949219 0.789062 3 0.898438 2.175781 1.351562 Z M 19.164062 7.460938 C 19.761719 8.175781 19.875 8.960938 19.875 12 C 19.875 17.550781 20.0625 17.4375 12 17.4375 C 3.976562 17.4375 4.125 17.550781 4.125 12.113281 C 4.125 8.324219 4.425781 7.273438 5.738281 6.75 C 6.1875 6.5625 9.226562 6.449219 12.488281 6.488281 C 18.261719 6.5625 18.449219 6.601562 19.164062 7.460938 Z M 19.164062 7.460938 "/>
<path style=" stroke:none;fill-rule:nonzero;fill:rgb(0%,0%,0%);fill-opacity:1;" d="M 10.5 11.960938 L 10.5 14.25 L 12.375 13.199219 C 13.386719 12.636719 14.25 12.113281 14.25 12 C 14.25 11.886719 13.386719 11.324219 12.375 10.761719 L 10.5 9.710938 Z M 10.5 11.960938 "/>
</g>
</svg>
